<?xml version="1.0" encoding="UTF-8"?>
<svg width="24px" height="24px" viewBox="0 0 24 24" version="1.1" xmlns="http://www.w3.org/2000/svg" xmlns:xlink="http://www.w3.org/1999/xlink">
    <!-- Generator: Sketch 48.2 (47327) - http://www.bohemiancoding.com/sketch -->
    <title>xxxhdpi/ic_humidity</title>
    <desc>Created with Sketch.</desc>
    <defs></defs>
    <g id="Symbols" stroke="none" stroke-width="1" fill="none" fill-rule="evenodd">
        <g id="ic_humidity" fill="#000" fill-rule="nonzero">
            <path d="M12.0018415,3.39070863 C9.81827696,5.91206452 8.39016091,7.717475 7.73084077,8.784294 C5.51864689,12.3637546 5.36460753,15.4521761 7.62044802,17.6849524 C10.1092116,20.1482704 13.8914623,20.1474906 16.3804952,17.6848512 C18.6344193,15.4548275 18.482875,12.420472 16.2673084,8.77990501 C15.6152841,7.70851398 14.1888589,5.9041449 12.0018415,3.39070863 Z M12.5636578,1.75475896 C15.1270576,4.6701121 16.7828726,6.74174897 17.5486736,8.0000952 C20.0858027,12.1690462 20.2742587,15.94248 17.4354868,18.7511498 C14.3620517,21.7919945 9.63859402,21.7929684 6.56525183,18.7510486 C3.72406753,15.9389131 3.91529581,12.1048698 6.45485907,7.99570621 C7.22594229,6.74804793 8.88062245,4.67783086 11.4358797,1.75624524 C11.7341773,1.41518293 12.2644623,1.41448408 12.5636578,1.75475896 Z" id="Rectangle-6"></path>
            <path d="M12.7364391,17.2967153 C14.3585521,16.7578634 15.4746927,15.2361832 15.4746927,13.5 C15.4746927,13.0857864 15.1389062,12.75 14.7246927,12.75 C14.3104791,12.75 13.9746927,13.0857864 13.9746927,13.5 C13.9746927,14.5851937 13.2768439,15.5365995 12.2635609,15.8732034 C11.8704689,16.0037851 11.6576623,16.4283065 11.7882441,16.8213985 C11.9188258,17.2144904 12.3433472,17.427297 12.7364391,17.2967153 Z" id="Oval"></path>
        </g>
    </g>
</svg>