<?xml version="1.0" encoding="UTF-8"?>
<svg width="24px" height="24px" viewBox="0 0 24 24" version="1.1" xmlns="http://www.w3.org/2000/svg" xmlns:xlink="http://www.w3.org/1999/xlink">
    <!-- Generator: Sketch 48.2 (47327) - http://www.bohemiancoding.com/sketch -->
    <title>xxxhdpi/ic_pressure</title>
    <desc>Created with Sketch.</desc>
    <defs></defs>
    <g id="Symbols" stroke="none" stroke-width="1" fill="none" fill-rule="evenodd">
        <g id="ic_pressure" fill="#000" fill-rule="nonzero">
            <path d="M13.5239755,9.41536432 L15.4696699,7.46966991 C15.7625631,7.1767767 16.2374369,7.1767767 16.5303301,7.46966991 C16.8232233,7.76256313 16.8232233,8.23743687 16.5303301,8.53033009 L14.5846357,10.4760245 C14.848553,10.9226594 15,11.4436435 15,12 C15,13.6568542 13.6568542,15 12,15 C10.3431458,15 9,13.6568542 9,12 C9,10.3431458 10.3431458,9 12,9 C12.5563565,9 13.0773406,9.15144704 13.5239755,9.41536432 Z M12,13.5 C12.8284271,13.5 13.5,12.8284271 13.5,12 C13.5,11.1715729 12.8284271,10.5 12,10.5 C11.1715729,10.5 10.5,11.1715729 10.5,12 C10.5,12.8284271 11.1715729,13.5 12,13.5 Z" id="Combined-Shape"></path>
            <path d="M12,22 C6.4771525,22 2,17.5228475 2,12 C2,6.4771525 6.4771525,2 12,2 C17.5228475,2 22,6.4771525 22,12 C22,17.5228475 17.5228475,22 12,22 Z M11.25,3.53263394 C7.23766388,3.88340838 4.02441687,7.02184512 3.55820314,11 L5,11 L5,12.5 L3.51446179,12.5 C3.77327069,16.9616897 7.47342702,20.5 12,20.5 C16.526573,20.5 20.2267293,16.9616897 20.4855382,12.5 L19,12.5 L19,11 L20.4417969,11 C19.9755831,7.02184512 16.7623361,3.88340838 12.75,3.53263394 L12.75,5 L11.25,5 L11.25,3.53263394 Z" id="Oval-6"></path>
        </g>
    </g>
</svg>