<?xml version="1.0" encoding="UTF-8"?>
<svg width="24px" height="24px" viewBox="0 0 24 24" version="1.1" xmlns="http://www.w3.org/2000/svg" xmlns:xlink="http://www.w3.org/1999/xlink">
    <!-- Generator: Sketch 48.2 (47327) - http://www.bohemiancoding.com/sketch -->
    <title>xxxhdpi/ic_water</title>
    <desc>Created with Sketch.</desc>
    <defs></defs>
    <g id="Symbols" stroke="none" stroke-width="1" fill="none" fill-rule="evenodd">
        <g id="ic_water" fill="#FFFFFF" fill-rule="nonzero">
            <path d="M12,11.25 C13.2153179,11.25 14.3112014,10.7473324 15,9.95542782 C15.6887986,10.7473324 16.7846821,11.25 18,11.25 C19.4225721,11.25 20.7170165,10.55875 21.3527158,9.46053175 C21.5602246,9.10204469 21.4378326,8.64321439 21.0793455,8.43570557 C20.7208585,8.22819676 20.2620282,8.35058881 20.0545194,8.70907586 C19.6968216,9.32702561 18.9047538,9.75 18,9.75 C16.7301957,9.75 15.75,8.93317026 15.75,8 C15.75,7 14.25,7 14.25,8 C14.25,8.93317026 13.2698043,9.75 12,9.75 C10.7301957,9.75 9.75,8.93317026 9.75,8 C9.75,7 8.25,7 8.25,8 C8.25,8.93317026 7.26980431,9.75 6,9.75 C5.10725201,9.75 4.32338339,9.33817924 3.95887912,8.73178737 C3.74548002,8.37677513 3.28469157,8.26197499 2.92967932,8.4753741 C2.57466707,8.6887732 2.45986693,9.14956165 2.67326604,9.5045739 C3.3185891,10.5781379 4.59742614,11.25 6,11.25 C7.21531787,11.25 8.31120142,10.7473324 9,9.95542782 C9.68879858,10.7473324 10.7846821,11.25 12,11.25 Z" id="Combined-Shape"></path>
            <path d="M12,17.25 C13.2153179,17.25 14.3112014,16.7473324 15,15.9554278 C15.6887986,16.7473324 16.7846821,17.25 18,17.25 C19.4225721,17.25 20.7170165,16.55875 21.3527158,15.4605317 C21.5602246,15.1020447 21.4378326,14.6432144 21.0793455,14.4357056 C20.7208585,14.2281968 20.2620282,14.3505888 20.0545194,14.7090759 C19.6968216,15.3270256 18.9047538,15.75 18,15.75 C16.7301957,15.75 15.75,14.9331703 15.75,14 C15.75,13 14.25,13 14.25,14 C14.25,14.9331703 13.2698043,15.75 12,15.75 C10.7301957,15.75 9.75,14.9331703 9.75,14 C9.75,13 8.25,13 8.25,14 C8.25,14.9331703 7.26980431,15.75 6,15.75 C5.10725201,15.75 4.32338339,15.3381792 3.95887912,14.7317874 C3.74548002,14.3767751 3.28469157,14.261975 2.92967932,14.4753741 C2.57466707,14.6887732 2.45986693,15.1495616 2.67326604,15.5045739 C3.3185891,16.5781379 4.59742614,17.25 6,17.25 C7.21531787,17.25 8.31120142,16.7473324 9,15.9554278 C9.68879858,16.7473324 10.7846821,17.25 12,17.25 Z" id="Combined-Shape"></path>
        </g>
    </g>
</svg>