<?xml version="1.0" encoding="UTF-8"?>
<svg width="24px" height="24px" viewBox="0 0 24 24" version="1.1" xmlns="http://www.w3.org/2000/svg" xmlns:xlink="http://www.w3.org/1999/xlink">
    <!-- Generator: Sketch 48.2 (47327) - http://www.bohemiancoding.com/sketch -->
    <title>xxxhdpi/ic_wind</title>
    <desc>Created with Sketch.</desc>
    <defs></defs>
    <g id="Symbols" stroke="none" stroke-width="1" fill="none" fill-rule="evenodd">
        <g id="ic_wind" fill="#000" fill-rule="nonzero">
            <path d="M6,11.5 L11.6879393,11.5 C13.7590071,11.5 15.4379393,9.82106781 15.4379393,7.75 C15.4379393,5.67893219 13.7590071,4 11.6879393,4 C10.9915771,4 10.3214165,4.19081058 9.73875624,4.54587024 C9.38504267,4.76141509 9.27303478,5.22289022 9.48857962,5.57660379 C9.70412447,5.93031737 10.1655996,6.04232526 10.5193132,5.82678042 C10.8684651,5.61401536 11.2689072,5.5 11.6879393,5.5 C12.93058,5.5 13.9379393,6.50735931 13.9379393,7.75 C13.9379393,8.99264069 12.93058,10 11.6879393,10 L6,10 C5.58578644,10 5.25,10.3357864 5.25,10.75 C5.25,11.1642136 5.58578644,11.5 6,11.5 Z" id="Oval-4"></path>
            <path d="M2,15 L11.9659536,15 C12.7943807,15 13.4659536,15.6715729 13.4659536,16.5 C13.4659536,17.3284271 12.7943807,18 11.9659536,18 C11.6863458,18 11.419729,17.9240879 11.1870536,17.7823009 C10.83334,17.5667561 10.3718649,17.678764 10.1563201,18.0324775 C9.94077523,18.3861911 10.0527831,18.8476662 10.4064967,19.0632111 C10.8726805,19.3472927 11.4090157,19.5 11.9659536,19.5 C13.6228078,19.5 14.9659536,18.1568542 14.9659536,16.5 C14.9659536,14.8431458 13.6228078,13.5 11.9659536,13.5 L2,13.5 C1.58578644,13.5 1.25,13.8357864 1.25,14.25 C1.25,14.6642136 1.58578644,15 2,15 Z" id="Oval-4"></path>
            <path d="M16.6666667,13 L18.9183345,13 C20.5751888,13 21.9183345,11.6568542 21.9183345,10 C21.9183345,8.34314575 20.5751888,7 18.9183345,7 C18.3613966,7 17.8250614,7.15270733 17.3588776,7.43678891 C17.0051641,7.65233375 16.8931562,8.11380888 17.108701,8.46752246 C17.3242459,8.82123604 17.785721,8.93324393 18.1394346,8.71769909 C18.3721099,8.57591212 18.6387267,8.5 18.9183345,8.5 C19.7467617,8.5 20.4183345,9.17157288 20.4183345,10 C20.4183345,10.8284271 19.7467617,11.5 18.9183345,11.5 L16.6666667,11.5 C16.2524531,11.5 15.9166667,11.8357864 15.9166667,12.25 C15.9166667,12.6642136 16.2524531,13 16.6666667,13 Z" id="Oval-4"></path>
        </g>
    </g>
</svg>